<svg width="190" height="42" viewBox="0 0 190 42" fill="none" xmlns="http://www.w3.org/2000/svg">
<rect x="21.8569" y="0.916992" width="15.9999" height="17.594" rx="0.5" fill="#5FBC6B"/>
<path d="M18.4283 9.71399C18.4283 14.5724 14.3349 18.511 9.28543 18.511C4.23597 18.511 0.142578 14.5724 0.142578 9.71399C0.142578 4.85554 4.23597 0.916992 9.28543 0.916992C14.3349 0.916992 18.4283 4.85554 18.4283 9.71399Z" fill="#F9C900"/>
<path d="M37.3569 39.6237L22.9875 39.6237C22.5534 39.6237 22.3255 39.1085 22.6176 38.7873L36.987 22.9863C37.2944 22.6483 37.8569 22.8658 37.8569 23.3227L37.8569 39.1237C37.8569 39.3999 37.633 39.6237 37.3569 39.6237Z" fill="#5050F2"/>
<path d="M17.9283 22.0297L0.642577 22.0297C0.366435 22.0297 0.142273 22.2644 0.145987 22.5405C0.369782 39.1814 11.5579 39.6122 17.9306 39.6234C18.2067 39.6239 18.4283 39.3999 18.4283 39.1237L18.4283 22.5297C18.4283 22.2536 18.2044 22.0297 17.9283 22.0297Z" fill="#F37F41"/>
<path d="M59.9352 30.7816V12.4696H63.3912V30.7816H59.9352ZM66.0138 17.3176H69.2538V17.7496C69.2538 18.0056 69.2298 18.2136 69.1818 18.3736C69.1338 18.5336 69.0378 18.6936 68.8938 18.8536L69.2298 19.0936C69.7418 18.3416 70.2858 17.8136 70.8618 17.5096C71.4538 17.1896 72.1418 17.0296 72.9258 17.0296C75.0058 17.0296 76.4058 17.7816 77.1258 19.2856C77.3658 19.8136 77.5178 20.3496 77.5818 20.8936C77.6458 21.4376 77.6778 22.1496 77.6778 23.0296V30.7816H74.4618V22.9816C74.4618 21.6856 74.2378 20.7896 73.7898 20.2936C73.4058 19.8936 72.8378 19.6936 72.0858 19.6936C71.1898 19.6936 70.5098 19.9656 70.0458 20.5096C69.7738 20.8296 69.5738 21.2616 69.4458 21.8056C69.3178 22.3336 69.2538 23.0376 69.2538 23.9176V30.7816H66.0138V17.3176ZM85.489 31.0456C84.321 31.0456 83.289 30.7496 82.393 30.1576C81.497 29.5656 80.801 28.7416 80.305 27.6856C79.809 26.6136 79.561 25.3976 79.561 24.0376C79.561 22.6776 79.809 21.4696 80.305 20.4136C80.801 19.3416 81.497 18.5096 82.393 17.9176C83.289 17.3256 84.321 17.0296 85.489 17.0296C86.353 17.0296 87.081 17.1896 87.673 17.5096C88.265 17.8136 88.817 18.3416 89.329 19.0936L89.665 18.8536C89.537 18.6776 89.441 18.5096 89.377 18.3496C89.329 18.1896 89.305 17.9896 89.305 17.7496V12.4696H92.545V30.7816H89.305V30.3496C89.305 30.1096 89.329 29.9096 89.377 29.7496C89.441 29.5736 89.537 29.3976 89.665 29.2216L89.329 29.0056C88.817 29.7576 88.265 30.2856 87.673 30.5896C87.081 30.8936 86.353 31.0456 85.489 31.0456ZM86.233 28.2616C87.257 28.2616 88.089 27.8696 88.729 27.0856C89.385 26.3016 89.713 25.2856 89.713 24.0376C89.713 22.7896 89.385 21.7736 88.729 20.9896C88.089 20.2056 87.257 19.8136 86.233 19.8136C85.209 19.8136 84.385 20.2136 83.761 21.0136C83.137 21.7976 82.825 22.8056 82.825 24.0376C82.825 25.2696 83.137 26.2856 83.761 27.0856C84.385 27.8696 85.209 28.2616 86.233 28.2616ZM99.664 31.0456C97.568 31.0456 96.168 30.3016 95.464 28.8136C95.208 28.2856 95.048 27.7496 94.984 27.2056C94.92 26.6456 94.888 25.9336 94.888 25.0696V17.3176H98.128V25.0936C98.128 25.7816 98.176 26.3416 98.272 26.7736C98.384 27.1896 98.552 27.5256 98.776 27.7816C99.128 28.1816 99.696 28.3816 100.48 28.3816C101.392 28.3816 102.08 28.1096 102.544 27.5656C102.816 27.2616 103.008 26.8456 103.12 26.3176C103.248 25.7736 103.312 25.0536 103.312 24.1576V17.3176H106.552V30.7816H103.312V30.3496C103.312 30.1096 103.336 29.9096 103.384 29.7496C103.448 29.5736 103.544 29.3976 103.672 29.2216L103.336 29.0056C102.824 29.7416 102.28 30.2696 101.704 30.5896C101.128 30.8936 100.448 31.0456 99.664 31.0456ZM114.867 31.0456C113.203 31.0456 111.763 30.6456 110.547 29.8456C109.331 29.0456 108.619 27.8456 108.411 26.2456H111.603C111.811 26.9656 112.195 27.5256 112.755 27.9256C113.315 28.3096 114.011 28.5016 114.843 28.5016C115.547 28.5016 116.115 28.3656 116.547 28.0936C116.995 27.8216 117.219 27.4376 117.219 26.9416C117.219 26.3976 116.955 26.0056 116.427 25.7656C115.915 25.5256 115.115 25.3016 114.027 25.0936C112.987 24.8856 112.123 24.6616 111.435 24.4216C110.747 24.1816 110.163 23.7976 109.683 23.2696C109.203 22.7256 108.963 21.9896 108.963 21.0616C108.963 19.7336 109.451 18.7336 110.427 18.0616C111.419 17.3736 112.667 17.0296 114.171 17.0296C115.755 17.0296 117.067 17.4296 118.107 18.2296C119.163 19.0296 119.811 20.1576 120.051 21.6136H117.003C116.827 20.9096 116.483 20.3976 115.971 20.0776C115.459 19.7416 114.851 19.5736 114.147 19.5736C113.507 19.5736 112.995 19.7016 112.611 19.9576C112.243 20.1976 112.059 20.5256 112.059 20.9416C112.059 21.4376 112.307 21.7896 112.803 21.9976C113.299 22.2056 114.083 22.4136 115.155 22.6216C116.259 22.8296 117.155 23.0536 117.843 23.2936C118.547 23.5176 119.147 23.9016 119.643 24.4456C120.155 24.9896 120.411 25.7416 120.411 26.7016C120.411 28.0296 119.915 29.0856 118.923 29.8696C117.947 30.6536 116.595 31.0456 114.867 31.0456ZM126.537 30.7816C124.441 30.7816 123.393 29.7976 123.393 27.8296V19.9096H121.401V17.3176H123.393V12.4696H126.633V17.3176H129.225V19.9096H126.633V26.8456C126.633 27.2616 126.697 27.5736 126.825 27.7816C126.969 27.9896 127.273 28.0936 127.737 28.0936H129.201V30.7816H126.537ZM131.02 17.3176H134.26V17.7496C134.26 18.0056 134.236 18.2136 134.188 18.3736C134.14 18.5336 134.044 18.6936 133.9 18.8536L134.236 19.0936C134.732 18.3576 135.284 17.8296 135.892 17.5096C136.5 17.1896 137.236 17.0296 138.1 17.0296H138.484V20.1496H137.74C136.716 20.1496 135.916 20.4216 135.34 20.9656C134.972 21.3336 134.7 21.8056 134.524 22.3816C134.348 22.9416 134.26 23.6616 134.26 24.5416V30.7816H131.02V17.3176ZM146.04 31.0456C144.68 31.0456 143.48 30.7496 142.44 30.1576C141.4 29.5656 140.592 28.7496 140.016 27.7096C139.456 26.6536 139.176 25.4616 139.176 24.1336C139.176 22.9016 139.424 21.7496 139.92 20.6776C140.432 19.5896 141.192 18.7096 142.2 18.0376C143.224 17.3656 144.472 17.0296 145.944 17.0296C147.16 17.0296 148.28 17.2856 149.304 17.7976C150.328 18.2936 151.152 19.0696 151.776 20.1256C152.4 21.1656 152.712 22.4616 152.712 24.0136V24.7096H144.168C144.072 24.7096 143.808 24.7096 143.376 24.7096C142.944 24.7096 142.6 24.6856 142.344 24.6376L142.248 24.9976C142.376 25.0296 142.472 25.0936 142.536 25.1896C142.616 25.2856 142.68 25.4216 142.728 25.5976C142.856 25.9336 142.96 26.1656 143.04 26.2936C143.36 26.9176 143.784 27.4056 144.312 27.7576C144.856 28.0936 145.472 28.2616 146.16 28.2616C146.896 28.2616 147.528 28.0776 148.056 27.7096C148.584 27.3256 148.96 26.8376 149.184 26.2456H152.496C152.064 27.6696 151.304 28.8296 150.216 29.7256C149.128 30.6056 147.736 31.0456 146.04 31.0456ZM142.632 22.6456C142.872 22.5016 143.088 22.4056 143.28 22.3576C143.472 22.3096 143.688 22.2856 143.928 22.2856H148.104C148.36 22.2856 148.584 22.3096 148.776 22.3576C148.984 22.4056 149.216 22.5016 149.472 22.6456L149.664 22.3096C149.552 22.2456 149.472 22.1896 149.424 22.1416C149.376 22.0776 149.336 22.0136 149.304 21.9496C149.288 21.8856 149.28 21.8456 149.28 21.8296C149.216 21.5576 149.088 21.2936 148.896 21.0376C148.592 20.5736 148.192 20.2216 147.696 19.9816C147.2 19.7256 146.648 19.5976 146.04 19.5976C145.432 19.5976 144.88 19.7176 144.384 19.9576C143.904 20.1976 143.512 20.5576 143.208 21.0376C143 21.2936 142.864 21.5576 142.8 21.8296C142.8 21.8456 142.784 21.8936 142.752 21.9736C142.72 22.0376 142.68 22.1016 142.632 22.1656C142.584 22.2136 142.512 22.2616 142.416 22.3096L142.632 22.6456ZM147.408 16.0216H144.912L141.312 12.4696H144.648L147.408 16.0216ZM158.487 31.0456C157.175 31.0456 156.111 30.7016 155.295 30.0136C154.479 29.3096 154.071 28.3336 154.071 27.0856C154.071 25.7416 154.583 24.7176 155.607 24.0136C156.343 23.5016 157.391 23.1176 158.751 22.8616L162.759 22.1176C162.759 21.3176 162.543 20.6856 162.111 20.2216C161.711 19.7896 161.111 19.5736 160.311 19.5736C159.687 19.5736 159.135 19.7576 158.655 20.1256C158.191 20.4936 157.903 20.9896 157.791 21.6136H154.575C154.799 20.1256 155.455 18.9896 156.543 18.2056C157.631 17.4216 158.895 17.0296 160.335 17.0296C161.151 17.0296 161.911 17.1496 162.615 17.3896C163.319 17.6136 163.919 17.9496 164.415 18.3976C164.911 18.8296 165.271 19.3336 165.495 19.9096C165.719 20.4856 165.855 21.0616 165.903 21.6376C165.967 22.2136 165.999 22.9256 165.999 23.7736V30.7816H162.759V30.3976C162.759 29.9816 162.863 29.5576 163.071 29.1256L162.711 28.9336C162.423 29.5256 162.023 29.9896 161.511 30.3256C160.791 30.8056 159.783 31.0456 158.487 31.0456ZM159.279 28.5016C159.871 28.5016 160.447 28.3736 161.007 28.1176C161.519 27.8776 161.927 27.5256 162.231 27.0616C162.375 26.8216 162.487 26.5896 162.567 26.3656C162.647 26.1256 162.735 25.7976 162.831 25.3816C162.863 25.1896 162.911 25.0536 162.975 24.9736C163.055 24.8776 163.167 24.8216 163.311 24.8056L163.239 24.4216C161.959 24.6776 161.135 24.8456 160.767 24.9256L159.615 25.1416C158.751 25.3016 158.127 25.5576 157.743 25.9096C157.455 26.1976 157.311 26.5496 157.311 26.9656C157.311 27.4616 157.487 27.8456 157.839 28.1176C158.207 28.3736 158.687 28.5016 159.279 28.5016ZM171.371 30.7816C170.347 30.7816 169.571 30.5496 169.043 30.0856C168.515 29.6056 168.251 28.8536 168.251 27.8296V12.4696H171.491V26.8696C171.491 27.3176 171.571 27.6376 171.731 27.8296C171.907 28.0056 172.195 28.0936 172.595 28.0936H173.459V30.7816H171.371ZM178.133 30.7816C177.109 30.7816 176.333 30.5496 175.805 30.0856C175.277 29.6056 175.013 28.8536 175.013 27.8296V12.4696H178.253V26.8696C178.253 27.3176 178.333 27.6376 178.493 27.8296C178.669 28.0056 178.957 28.0936 179.357 28.0936H180.221V30.7816H178.133Z" fill="white"/>
</svg>
