<svg width="20" height="20" viewBox="0 0 20 20" fill="none" xmlns="http://www.w3.org/2000/svg">
<path fill-rule="evenodd" clip-rule="evenodd" d="M15.5406 3.46703C15.5406 2.54752 15.1898 1.66566 14.5653 1.01547C13.9407 0.365276 13.0937 0 12.2105 0H7.77032C6.88711 0 6.04008 0.365276 5.41556 1.01547C4.79104 1.66566 4.44018 2.54752 4.44018 3.46703H3.33014C2.44693 3.46703 1.5999 3.83231 0.975375 4.4825C0.350853 5.1327 0 6.01455 0 6.93406V16.1795C0 17.099 0.350853 17.9809 0.975375 18.631C1.5999 19.2812 2.44693 19.6465 3.33014 19.6465H16.6507C17.5339 19.6465 18.3809 19.2812 19.0054 18.631C19.63 17.9809 19.9808 17.099 19.9808 16.1795V6.93406C19.9808 6.01455 19.63 5.1327 19.0054 4.4825C18.3809 3.83231 17.5339 3.46703 16.6507 3.46703H15.5406ZM12.2105 2.31135H7.77032C7.47592 2.31135 7.19357 2.43311 6.9854 2.64984C6.77723 2.86658 6.66027 3.16053 6.66027 3.46703H13.3205C13.3205 3.16053 13.2036 2.86658 12.9954 2.64984C12.7872 2.43311 12.5049 2.31135 12.2105 2.31135ZM3.33014 5.77839H16.6507C16.9451 5.77839 17.2274 5.90015 17.4356 6.11688C17.6438 6.33361 17.7607 6.62756 17.7607 6.93406V16.1795C17.7607 16.486 17.6438 16.7799 17.4356 16.9967C17.2274 17.2134 16.9451 17.3352 16.6507 17.3352H3.33014C3.03573 17.3352 2.75339 17.2134 2.54522 16.9967C2.33704 16.7799 2.22009 16.486 2.22009 16.1795V6.93406C2.22009 6.62756 2.33704 6.33361 2.54522 6.11688C2.75339 5.90015 3.03573 5.77839 3.33014 5.77839Z" fill="black"/>
</svg>
