<svg width="285" height="282" viewBox="0 0 285 282" fill="none" xmlns="http://www.w3.org/2000/svg">
<rect x="0.410156" y="146.72" width="283.672" height="134.405" rx="0.5" fill="#5FBC6B"/>
<rect x="0.410156" y="146.72" width="283.672" height="134.405" rx="0.5"/>
<rect x="0.410156" y="146.72" width="283.672" height="134.405" rx="0.5" fill="#5FBC6B"/>
<path d="M0.910049 0.969726L182.892 0.969727C183.289 0.969727 183.528 1.41107 183.31 1.74362L1.32837 279.722C1.05623 280.137 0.410049 279.945 0.410049 279.448L0.410049 1.46973C0.410049 1.1936 0.633911 0.969726 0.910049 0.969726Z" fill="#5050F2"/>
<path d="M249.512 72.6546C249.512 87.9656 237.1 100.378 221.789 100.378C206.478 100.378 194.066 87.9656 194.066 72.6546C194.066 57.3436 206.478 44.9316 221.789 44.9316C237.1 44.9316 249.512 57.3436 249.512 72.6546Z" fill="#F9C900"/>
</svg>
