<svg width="401" height="239" viewBox="0 0 401 239" fill="none" xmlns="http://www.w3.org/2000/svg">
<path d="M267.654 238.409L267.654 0.530762C267.654 0.254619 267.414 0.0307478 267.138 0.0309562C1.28297 0.231592 0.76188 155.661 0.759775 238.421C0.759766 238.697 0.983629 238.909 1.25977 238.909L267.154 238.909C267.43 238.909 267.654 238.685 267.654 238.409Z" fill="#F37F41"/>
<rect x="267.653" y="238.909" width="238.878" height="133.239" rx="0.5" transform="rotate(-90 267.653 238.909)" fill="#5FBC6B"/>
<rect x="267.653" y="238.909" width="238.878" height="133.239" rx="0.5" transform="rotate(-90 267.653 238.909)"/>
<rect x="267.653" y="238.909" width="238.878" height="133.239" rx="0.5" transform="rotate(-90 267.653 238.909)" fill="#5FBC6B"/>
<path d="M362.475 119.47C362.475 135.49 349.488 148.477 333.468 148.477C317.448 148.477 304.461 135.49 304.461 119.47C304.461 103.45 317.448 90.4629 333.468 90.4629C349.488 90.4629 362.475 103.45 362.475 119.47Z" fill="#F9C900"/>
</svg>
