<svg width="318" height="323" viewBox="0 0 318 323" fill="none" xmlns="http://www.w3.org/2000/svg">
<path d="M317.293 158.936C317.293 246.474 246.33 317.437 158.793 317.437C71.2555 317.437 0.29248 246.474 0.29248 158.936C0.29248 71.3991 71.2555 0.436035 158.793 0.436035C246.33 0.436035 317.293 71.3991 317.293 158.936Z" fill="#F9C900"/>
<path d="M159.293 322.97L297.675 322.97C297.951 322.97 298.175 322.731 298.174 322.455C297.922 199.739 207.585 199.327 159.281 199.325C159.005 199.325 158.793 199.549 158.793 199.825L158.793 322.47C158.793 322.746 159.017 322.97 159.293 322.97Z" fill="#F37F41"/>
<path d="M159.293 201.117L282.717 201.117C283.166 201.117 283.388 201.662 283.066 201.975L159.642 322.143C159.325 322.452 158.793 322.227 158.793 321.785L158.793 201.617C158.793 201.34 159.017 201.117 159.293 201.117Z" fill="#5050F2"/>
</svg>
