<svg width="52" height="53" viewBox="0 0 52 53" fill="none" xmlns="http://www.w3.org/2000/svg">
<rect x="29.9152" y="0.658203" width="21.5132" height="23.6564" rx="0.5" fill="#5FBC6B"/>
<path d="M25.3052 12.4864C25.3052 19.0189 19.8014 24.3146 13.012 24.3146C6.22262 24.3146 0.71875 19.0189 0.71875 12.4864C0.71875 5.95387 6.22262 0.658203 13.012 0.658203C19.8014 0.658203 25.3052 5.95387 25.3052 12.4864Z" fill="#F9C900"/>
<path d="M50.9283 52.7038L31.0457 52.7038C30.6116 52.7038 30.3837 52.1885 30.6758 51.8674L50.5584 30.0039C50.8659 29.6659 51.4283 29.8834 51.4283 30.3403L51.4283 52.2038C51.4283 52.4799 51.2045 52.7038 50.9283 52.7038Z" fill="#5050F2"/>
<path d="M24.8052 29.0467L1.21875 29.0467C0.942607 29.0467 0.718535 29.2827 0.721288 29.5588C0.947609 52.2585 16.2511 52.6945 24.8102 52.703C25.0864 52.7032 25.3052 52.4793 25.3052 52.2031L25.3052 29.5467C25.3052 29.2706 25.0814 29.0467 24.8052 29.0467Z" fill="#F37F41"/>
</svg>
