<svg width="124" height="40" viewBox="0 0 124 40" fill="none" xmlns="http://www.w3.org/2000/svg">
<mask id="path-1-inside-1" fill="white">
<rect x="19" y="6" width="14" height="15" rx="0.5"/>
</mask>
<rect x="19" y="6" width="14" height="15" rx="0.5" fill="#04043C" stroke="#04043C" stroke-width="2" mask="url(#path-1-inside-1)"/>
<path d="M16 13.5C16 17.6421 12.4183 21 8 21C3.58172 21 0 17.6421 0 13.5C0 9.35786 3.58172 6 8 6C12.4183 6 16 9.35786 16 13.5Z" fill="#F9C900"/>
<path d="M32.5 39L20.1506 39C19.7134 39 19.4868 38.4785 19.7851 38.1588L32.1345 24.9274C32.4441 24.5956 33 24.8147 33 25.2685L33 38.5C33 38.7761 32.7761 39 32.5 39Z" fill="#04043C"/>
<path d="M15.5 24L0.499999 24C0.223857 24 -0.000379587 24.2338 0.00410005 24.5099C0.232222 38.5704 9.92401 38.9872 15.5008 38.9996C15.7769 39.0002 16 38.7761 16 38.5L16 24.5C16 24.2239 15.7761 24 15.5 24Z" fill="#04043C"/>
<path d="M43.2427 39V26.792H45.5467V39H43.2427ZM47.2951 30.024H49.4551V30.312C49.4551 30.4827 49.4391 30.6213 49.4071 30.728C49.3751 30.8347 49.3111 30.9413 49.2151 31.048L49.4391 31.208C49.7804 30.7067 50.1431 30.3547 50.5271 30.152C50.9217 29.9387 51.3804 29.832 51.9031 29.832C53.2897 29.832 54.2231 30.3333 54.7031 31.336C54.8631 31.688 54.9644 32.0453 55.0071 32.408C55.0497 32.7707 55.0711 33.2453 55.0711 33.832V39H52.9271V33.8C52.9271 32.936 52.7777 32.3387 52.4791 32.008C52.2231 31.7413 51.8444 31.608 51.3431 31.608C50.7457 31.608 50.2924 31.7893 49.9831 32.152C49.8017 32.3653 49.6684 32.6533 49.5831 33.016C49.4977 33.368 49.4551 33.8373 49.4551 34.424V39H47.2951V30.024ZM60.2786 39.176C59.4999 39.176 58.8119 38.9787 58.2146 38.584C57.6172 38.1893 57.1532 37.64 56.8226 36.936C56.4919 36.2213 56.3266 35.4107 56.3266 34.504C56.3266 33.5973 56.4919 32.792 56.8226 32.088C57.1532 31.3733 57.6172 30.8187 58.2146 30.424C58.8119 30.0293 59.4999 29.832 60.2786 29.832C60.8546 29.832 61.3399 29.9387 61.7346 30.152C62.1292 30.3547 62.4972 30.7067 62.8386 31.208L63.0626 31.048C62.9772 30.9307 62.9132 30.8187 62.8706 30.712C62.8386 30.6053 62.8226 30.472 62.8226 30.312V26.792H64.9826V39H62.8226V38.712C62.8226 38.552 62.8386 38.4187 62.8706 38.312C62.9132 38.1947 62.9772 38.0773 63.0626 37.96L62.8386 37.816C62.4972 38.3173 62.1292 38.6693 61.7346 38.872C61.3399 39.0747 60.8546 39.176 60.2786 39.176ZM60.7746 37.32C61.4572 37.32 62.0119 37.0587 62.4386 36.536C62.8759 36.0133 63.0946 35.336 63.0946 34.504C63.0946 33.672 62.8759 32.9947 62.4386 32.472C62.0119 31.9493 61.4572 31.688 60.7746 31.688C60.0919 31.688 59.5426 31.9547 59.1266 32.488C58.7106 33.0107 58.5026 33.6827 58.5026 34.504C58.5026 35.3253 58.7106 36.0027 59.1266 36.536C59.5426 37.0587 60.0919 37.32 60.7746 37.32ZM69.7286 39.176C68.3312 39.176 67.3979 38.68 66.9286 37.688C66.7579 37.336 66.6512 36.9787 66.6086 36.616C66.5659 36.2427 66.5446 35.768 66.5446 35.192V30.024H68.7046V35.208C68.7046 35.6667 68.7366 36.04 68.8006 36.328C68.8752 36.6053 68.9872 36.8293 69.1366 37C69.3712 37.2667 69.7499 37.4 70.2726 37.4C70.8806 37.4 71.3392 37.2187 71.6486 36.856C71.8299 36.6533 71.9579 36.376 72.0326 36.024C72.1179 35.6613 72.1606 35.1813 72.1606 34.584V30.024H74.3206V39H72.1606V38.712C72.1606 38.552 72.1766 38.4187 72.2086 38.312C72.2512 38.1947 72.3152 38.0773 72.4006 37.96L72.1766 37.816C71.8352 38.3067 71.4726 38.6587 71.0886 38.872C70.7046 39.0747 70.2512 39.176 69.7286 39.176ZM79.8637 39.176C78.7544 39.176 77.7944 38.9093 76.9837 38.376C76.173 37.8427 75.6984 37.0427 75.5597 35.976H77.6877C77.8264 36.456 78.0824 36.8293 78.4557 37.096C78.829 37.352 79.293 37.48 79.8477 37.48C80.317 37.48 80.6957 37.3893 80.9837 37.208C81.2824 37.0267 81.4317 36.7707 81.4317 36.44C81.4317 36.0773 81.2557 35.816 80.9037 35.656C80.5624 35.496 80.029 35.3467 79.3037 35.208C78.6104 35.0693 78.0344 34.92 77.5757 34.76C77.117 34.6 76.7277 34.344 76.4077 33.992C76.0877 33.6293 75.9277 33.1387 75.9277 32.52C75.9277 31.6347 76.253 30.968 76.9037 30.52C77.565 30.0613 78.397 29.832 79.3997 29.832C80.4557 29.832 81.3304 30.0987 82.0237 30.632C82.7277 31.1653 83.1597 31.9173 83.3197 32.888H81.2877C81.1704 32.4187 80.941 32.0773 80.5997 31.864C80.2584 31.64 79.853 31.528 79.3837 31.528C78.957 31.528 78.6157 31.6133 78.3597 31.784C78.1144 31.944 77.9917 32.1627 77.9917 32.44C77.9917 32.7707 78.157 33.0053 78.4877 33.144C78.8184 33.2827 79.341 33.4213 80.0557 33.56C80.7917 33.6987 81.389 33.848 81.8477 34.008C82.317 34.1573 82.717 34.4133 83.0477 34.776C83.389 35.1387 83.5597 35.64 83.5597 36.28C83.5597 37.1653 83.229 37.8693 82.5677 38.392C81.917 38.9147 81.0157 39.176 79.8637 39.176ZM87.6436 39C86.2462 39 85.5476 38.344 85.5476 37.032V31.752H84.2196V30.024H85.5476V26.792H87.7076V30.024H89.4356V31.752H87.7076V36.376C87.7076 36.6533 87.7502 36.8613 87.8356 37C87.9316 37.1387 88.1342 37.208 88.4436 37.208H89.4196V39H87.6436ZM90.6326 30.024H92.7926V30.312C92.7926 30.4827 92.7766 30.6213 92.7446 30.728C92.7126 30.8347 92.6486 30.9413 92.5526 31.048L92.7766 31.208C93.1072 30.7173 93.4752 30.3653 93.8806 30.152C94.2859 29.9387 94.7766 29.832 95.3526 29.832H95.6086V31.912H95.1126C94.4299 31.912 93.8966 32.0933 93.5126 32.456C93.2672 32.7013 93.0859 33.016 92.9686 33.4C92.8512 33.7733 92.7926 34.2533 92.7926 34.84V39H90.6326V30.024ZM100.646 39.176C99.7389 39.176 98.9389 38.9787 98.2456 38.584C97.5522 38.1893 97.0136 37.6453 96.6296 36.952C96.2562 36.248 96.0696 35.4533 96.0696 34.568C96.0696 33.7467 96.2349 32.9787 96.5656 32.264C96.9069 31.5387 97.4136 30.952 98.0856 30.504C98.7682 30.056 99.6002 29.832 100.582 29.832C101.392 29.832 102.139 30.0027 102.822 30.344C103.504 30.6747 104.054 31.192 104.47 31.896C104.886 32.5893 105.094 33.4533 105.094 34.488V34.952H99.3976C99.3336 34.952 99.1576 34.952 98.8696 34.952C98.5816 34.952 98.3522 34.936 98.1816 34.904L98.1176 35.144C98.2029 35.1653 98.2669 35.208 98.3096 35.272C98.3629 35.336 98.4056 35.4267 98.4376 35.544C98.5229 35.768 98.5922 35.9227 98.6456 36.008C98.8589 36.424 99.1416 36.7493 99.4936 36.984C99.8562 37.208 100.267 37.32 100.726 37.32C101.216 37.32 101.638 37.1973 101.99 36.952C102.342 36.696 102.592 36.3707 102.742 35.976H104.95C104.662 36.9253 104.155 37.6987 103.43 38.296C102.704 38.8827 101.776 39.176 100.646 39.176ZM98.3736 33.576C98.5336 33.48 98.6776 33.416 98.8056 33.384C98.9336 33.352 99.0776 33.336 99.2376 33.336H102.022C102.192 33.336 102.342 33.352 102.47 33.384C102.608 33.416 102.763 33.48 102.934 33.576L103.062 33.352C102.987 33.3093 102.934 33.272 102.902 33.24C102.87 33.1973 102.843 33.1547 102.822 33.112C102.811 33.0693 102.806 33.0427 102.806 33.032C102.763 32.8507 102.678 32.6747 102.55 32.504C102.347 32.1947 102.08 31.96 101.75 31.8C101.419 31.6293 101.051 31.544 100.646 31.544C100.24 31.544 99.8722 31.624 99.5416 31.784C99.2216 31.944 98.9602 32.184 98.7576 32.504C98.6189 32.6747 98.5282 32.8507 98.4856 33.032C98.4856 33.0427 98.4749 33.0747 98.4536 33.128C98.4322 33.1707 98.4056 33.2133 98.3736 33.256C98.3416 33.288 98.2936 33.32 98.2296 33.352L98.3736 33.576ZM101.558 29.16H99.8936L97.4936 26.792H99.7176L101.558 29.16ZM108.944 39.176C108.069 39.176 107.36 38.9467 106.816 38.488C106.272 38.0187 106 37.368 106 36.536C106 35.64 106.341 34.9573 107.024 34.488C107.515 34.1467 108.213 33.8907 109.12 33.72L111.792 33.224C111.792 32.6907 111.648 32.2693 111.36 31.96C111.093 31.672 110.693 31.528 110.16 31.528C109.744 31.528 109.376 31.6507 109.056 31.896C108.747 32.1413 108.555 32.472 108.48 32.888H106.336C106.485 31.896 106.923 31.1387 107.648 30.616C108.373 30.0933 109.216 29.832 110.176 29.832C110.72 29.832 111.227 29.912 111.696 30.072C112.165 30.2213 112.565 30.4453 112.896 30.744C113.227 31.032 113.467 31.368 113.616 31.752C113.765 32.136 113.856 32.52 113.888 32.904C113.931 33.288 113.952 33.7627 113.952 34.328V39H111.792V38.744C111.792 38.4667 111.861 38.184 112 37.896L111.76 37.768C111.568 38.1627 111.301 38.472 110.96 38.696C110.48 39.016 109.808 39.176 108.944 39.176ZM109.472 37.48C109.867 37.48 110.251 37.3947 110.624 37.224C110.965 37.064 111.237 36.8293 111.44 36.52C111.536 36.36 111.611 36.2053 111.664 36.056C111.717 35.896 111.776 35.6773 111.84 35.4C111.861 35.272 111.893 35.1813 111.936 35.128C111.989 35.064 112.064 35.0267 112.16 35.016L112.112 34.76C111.259 34.9307 110.709 35.0427 110.464 35.096L109.696 35.24C109.12 35.3467 108.704 35.5173 108.448 35.752C108.256 35.944 108.16 36.1787 108.16 36.456C108.16 36.7867 108.277 37.0427 108.512 37.224C108.757 37.3947 109.077 37.48 109.472 37.48ZM117.533 39C116.85 39 116.333 38.8453 115.981 38.536C115.629 38.216 115.453 37.7147 115.453 37.032V26.792H117.613V36.392C117.613 36.6907 117.666 36.904 117.773 37.032C117.89 37.1493 118.082 37.208 118.349 37.208H118.925V39H117.533ZM122.041 39C121.359 39 120.841 38.8453 120.489 38.536C120.137 38.216 119.961 37.7147 119.961 37.032V26.792H122.121V36.392C122.121 36.6907 122.175 36.904 122.281 37.032C122.399 37.1493 122.591 37.208 122.857 37.208H123.433V39H122.041Z" fill="black"/>
<path d="M46.316 20V9.792H42.636V8.64H51.196V9.792H47.516V20H46.316ZM53.8267 20.16C52.7067 20.16 51.7627 19.7547 50.9947 18.944C50.2267 18.1333 49.8427 17.152 49.8427 16C49.8427 14.848 50.2267 13.8667 50.9947 13.056C51.7627 12.2453 52.7067 11.84 53.8267 11.84C54.4347 11.84 55.0054 11.9787 55.5387 12.256C56.0827 12.5333 56.4987 12.896 56.7867 13.344V12H57.9067V20H56.7867V18.656C56.4987 19.104 56.0827 19.4667 55.5387 19.744C55.0054 20.0213 54.4347 20.16 53.8267 20.16ZM51.8107 18.224C52.3654 18.8213 53.0747 19.12 53.9387 19.12C54.8027 19.12 55.5067 18.8213 56.0507 18.224C56.6054 17.616 56.8827 16.8747 56.8827 16C56.8827 15.1253 56.6054 14.3893 56.0507 13.792C55.5067 13.184 54.8027 12.88 53.9387 12.88C53.0747 12.88 52.3654 13.184 51.8107 13.792C51.2667 14.3893 50.9947 15.1253 50.9947 16C50.9947 16.8747 51.2667 17.616 51.8107 18.224ZM59.6954 20V8H60.8154V20H59.6954ZM65.9224 20.16C64.7704 20.16 63.821 19.7653 63.0744 18.976C62.3277 18.1867 61.9544 17.1947 61.9544 16C61.9544 14.8053 62.317 13.8133 63.0424 13.024C63.7677 12.2347 64.7437 11.84 65.9704 11.84C67.197 11.84 68.1517 12.288 68.8344 13.184C69.517 14.0693 69.805 15.1147 69.6984 16.32H63.1064C63.1064 17.12 63.389 17.7867 63.9544 18.32C64.5197 18.8533 65.1757 19.12 65.9224 19.12C67.0744 19.12 67.9064 18.6187 68.4184 17.616H69.5704C69.3677 18.352 68.9517 18.96 68.3224 19.44C67.693 19.92 66.893 20.16 65.9224 20.16ZM65.9224 12.88C65.2504 12.88 64.6584 13.0827 64.1464 13.488C63.6344 13.8827 63.309 14.5013 63.1704 15.344H68.5464C68.4184 14.5547 68.1197 13.9467 67.6504 13.52C67.181 13.0933 66.605 12.88 65.9224 12.88ZM70.8535 20V12H71.9735V13.344C72.5175 12.3413 73.3922 11.84 74.5975 11.84C75.4828 11.84 76.2028 12.1227 76.7575 12.688C77.3228 13.2533 77.6055 14.0213 77.6055 14.992V20H76.4855V15.152C76.4855 14.4587 76.2988 13.9093 75.9255 13.504C75.5628 13.088 75.0775 12.88 74.4695 12.88C73.7442 12.88 73.1468 13.1627 72.6775 13.728C72.2082 14.2827 71.9735 15.0453 71.9735 16.016V20H70.8535ZM82.0388 20.08C81.3668 20.08 80.8174 19.888 80.3908 19.504C79.9748 19.1093 79.7668 18.5333 79.7668 17.776V13.056H78.0548V12H79.7668V9.776H80.8868V12H83.2228V13.056H80.8868V17.68C80.8868 18.1707 80.9934 18.5227 81.2068 18.736C81.4308 18.9387 81.7668 19.04 82.2148 19.04C82.6201 19.04 82.9561 18.9813 83.2228 18.864V19.872C82.8708 20.0107 82.4761 20.08 82.0388 20.08ZM85.4018 19.808C85.1991 20.0213 84.9538 20.128 84.6658 20.128C84.3778 20.128 84.1271 20.0213 83.9138 19.808C83.7111 19.5947 83.6098 19.344 83.6098 19.056C83.6098 18.768 83.7111 18.5173 83.9138 18.304C84.1271 18.0907 84.3778 17.984 84.6658 17.984C84.9538 17.984 85.1991 18.0907 85.4018 18.304C85.6151 18.5173 85.7218 18.768 85.7218 19.056C85.7218 19.344 85.6151 19.5947 85.4018 19.808Z" fill="black"/>
</svg>
